<svg width="28" height="28" viewBox="0 0 28 28" fill="none" xmlns="http://www.w3.org/2000/svg">
<path d="M13.999 0.472015C16.9821 0.472015 19.4138 2.87487 19.4609 5.84799H22.7354C23.1352 5.84799 23.4664 6.15832 23.4932 6.55698L24.8379 26.7171C24.8518 26.9263 24.7774 27.1324 24.6348 27.2865L24.6338 27.2874C24.4898 27.4401 24.2892 27.5277 24.0791 27.5277H3.91895C3.70882 27.5275 3.50762 27.4396 3.36426 27.2874V27.2865C3.22159 27.1324 3.14719 26.9263 3.16113 26.7171L4.50488 6.55698C4.53216 6.15846 4.86367 5.84799 5.26367 5.84799H8.53809C8.58521 2.87501 11.0162 0.472229 13.999 0.472015ZM4.73145 26.0081H23.2666L22.0244 7.36752H19.4619V8.53647H20.1348V10.055H17.2715V8.53647H17.9434V7.36752H10.0547V8.53647H10.7266V10.055H7.86328V8.53647H8.53516V7.36752H5.97363L4.73145 26.0081ZM13.999 1.99155C11.8537 1.99176 10.1046 3.71369 10.0576 5.84799H17.9414C17.8945 3.71356 16.1445 1.99155 13.999 1.99155Z" fill="white" stroke="white" stroke-width="0.175"/>
<path d="M10.6406 14.0878H17.3613C17.5819 14.088 17.7843 14.2129 17.8838 14.4101L19.2275 17.0986C19.3399 17.3236 19.2964 17.5951 19.1182 17.7734L14.4141 22.4765V22.4775C14.3002 22.5918 14.1506 22.6484 14.001 22.6484C13.8515 22.6484 13.702 22.5906 13.5879 22.4765L8.88379 17.7734V17.7724C8.70586 17.5947 8.662 17.3235 8.77441 17.0986L10.1182 14.4101C10.2171 14.213 10.4193 14.0879 10.6406 14.0878ZM10.9785 15.3046L10.0361 17.1884L10.0078 17.2441L10.0527 17.289L13.2666 20.5038L13.416 20.6533V15.2568H11.002L10.9785 15.3046ZM14.585 20.6533L17.9941 17.2441L17.9658 17.1884L17.0234 15.3046L16.999 15.2568H14.585V20.6533Z" fill="white" stroke="white" stroke-width="0.175"/>
</svg>
