<svg width="22" height="28" viewBox="0 0 22 28" fill="none" xmlns="http://www.w3.org/2000/svg">
<path d="M10.927 0.0871086C13.91 0.0871086 16.3418 2.48997 16.3889 5.46309H19.6633C20.0632 5.46309 20.3944 5.77342 20.4211 6.17207L21.7659 26.3322C21.7798 26.5414 21.7054 26.7475 21.5627 26.9016L21.5618 26.9025C21.4177 27.0552 21.2171 27.1428 21.0071 27.1428H0.846924C0.636802 27.1426 0.435601 27.0547 0.292236 26.9025V26.9016C0.14957 26.7475 0.0751665 26.5414 0.0891113 26.3322L1.43286 6.17207C1.46014 5.77356 1.79165 5.46309 2.19165 5.46309H5.46606C5.51319 2.4901 7.94415 0.0873226 10.927 0.0871086ZM1.65942 25.6232H20.1946L18.9524 6.98262H16.3899V8.15156H17.0627V9.67012H14.1995V8.15156H14.8713V6.98262H6.98267V8.15156H7.65454V9.67012H4.79126V8.15156H5.46313V6.98262H2.90161L1.65942 25.6232ZM10.927 1.60664C8.7817 1.60685 7.03253 3.32879 6.9856 5.46309H14.8694C14.8224 3.32865 13.0725 1.60664 10.927 1.60664Z" fill="white" stroke="white" stroke-width="0.175"/>
</svg>
