<svg width="26" height="21" viewBox="0 0 26 21" fill="none" xmlns="http://www.w3.org/2000/svg">
<path d="M4.46875 15.3008H21.5312C23.1101 15.3008 24.1528 15.6645 24.8086 16.3926C25.4694 17.1266 25.7812 18.2783 25.7812 19.957C25.7812 20.2849 25.5154 20.5508 25.1875 20.5508H0.8125C0.484603 20.5508 0.21875 20.2849 0.21875 19.957C0.218758 18.2783 0.530643 17.1266 1.19141 16.3926C1.84719 15.6645 2.88992 15.3008 4.46875 15.3008ZM4.46875 16.4883C3.4641 16.4883 2.72142 16.6233 2.21875 17.0508C1.71041 17.4832 1.49879 18.1694 1.43164 19.1289L1.41504 19.3633H24.5957L24.5771 19.126L24.5762 19.123C24.576 19.1211 24.5765 19.1185 24.5762 19.1152C24.5755 19.108 24.5745 19.0972 24.5732 19.084C24.5707 19.0575 24.566 19.0195 24.5605 18.9726C24.5496 18.8788 24.5327 18.7483 24.5078 18.6016C24.459 18.3139 24.3774 17.9411 24.2432 17.6621C24.0294 17.2181 23.7034 16.9172 23.2451 16.7334C22.7973 16.5539 22.2297 16.4883 21.5312 16.4883H4.46875ZM13 3.51952C16.4209 3.51952 19.2092 4.57185 21.1396 6.33202C23.0687 8.09099 24.1563 10.5702 24.1562 13.457C24.1562 13.7849 23.8904 14.0508 23.5625 14.0508H2.4375C2.1096 14.0508 1.84375 13.7849 1.84375 13.457C1.84375 10.5702 2.93129 8.09099 4.86035 6.33202C6.79077 4.57186 9.57917 3.51953 13 3.51952ZM13 4.70702C10.1027 4.70703 7.7173 5.51182 6.00391 6.91113C4.28876 8.31195 3.26118 10.2973 3.06543 12.626L3.0459 12.8633H22.9541L22.9346 12.626C22.7393 10.2978 21.7123 8.31206 19.9971 6.91113C18.2836 5.51176 15.8977 4.70702 13 4.70702Z" fill="white" stroke="white" stroke-width="0.4375"/>
<path d="M10.5632 0.21875H15.4382C15.7661 0.218776 16.032 0.484618 16.032 0.8125C16.032 1.14037 15.7661 1.40622 15.4382 1.40625H13.5945V2.84375C13.5945 3.17161 13.3286 3.43748 13.0007 3.4375C12.6729 3.4375 12.407 3.17163 12.407 2.84375V1.40625H10.5632C10.2353 1.40625 9.96951 1.14043 9.9695 0.8125C9.9695 0.484602 10.2353 0.21875 10.5632 0.21875Z" fill="white" stroke="white" stroke-width="0.4375"/>
</svg>
