<svg width="26" height="18" viewBox="0 0 26 18" fill="none" xmlns="http://www.w3.org/2000/svg">
<path d="M4.46875 12H21.5312C23.1101 12 24.1528 12.3637 24.8086 13.0918C25.4694 13.8258 25.7812 14.9776 25.7812 16.6562C25.7812 16.9841 25.5154 17.25 25.1875 17.25H0.8125C0.484603 17.25 0.21875 16.9841 0.21875 16.6562C0.218758 14.9776 0.530643 13.8258 1.19141 13.0918C1.84719 12.3637 2.88992 12 4.46875 12ZM4.46875 13.1875C3.4641 13.1875 2.72142 13.3226 2.21875 13.75C1.71041 14.1824 1.49879 14.8686 1.43164 15.8281L1.41504 16.0625H24.5957L24.5771 15.8252L24.5762 15.8223C24.576 15.8204 24.5765 15.8177 24.5762 15.8145C24.5755 15.8073 24.5745 15.7964 24.5732 15.7832C24.5707 15.7567 24.566 15.7187 24.5605 15.6719C24.5496 15.578 24.5327 15.4475 24.5078 15.3008C24.459 15.0131 24.3774 14.6403 24.2432 14.3613C24.0294 13.9173 23.7034 13.6165 23.2451 13.4326C22.7973 13.2531 22.2297 13.1875 21.5312 13.1875H4.46875ZM13 0.21875C16.4209 0.21875 19.2092 1.27107 21.1396 3.03125C23.0687 4.79022 24.1563 7.26945 24.1562 10.1562C24.1562 10.4842 23.8904 10.75 23.5625 10.75H2.4375C2.1096 10.75 1.84375 10.4841 1.84375 10.1562C1.84375 7.26945 2.93129 4.79021 4.86035 3.03125C6.79077 1.27109 9.57917 0.218759 13 0.21875ZM13 1.40625C10.1027 1.40626 7.7173 2.21105 6.00391 3.61035C4.28876 5.01117 3.26118 6.99651 3.06543 9.3252L3.0459 9.5625H22.9541L22.9346 9.3252C22.7393 6.99703 21.7123 5.01129 19.9971 3.61035C18.2836 2.21099 15.8977 1.40625 13 1.40625Z" fill="white" stroke="white" stroke-width="0.4375"/>
</svg>
