<svg width="13" height="12" viewBox="0 0 13 12" fill="none" xmlns="http://www.w3.org/2000/svg">
<path d="M8.78503 12V7.35627H10.4371L10.6844 5.551H8.78503V4.39843C8.78503 3.87576 8.93917 3.51956 9.73555 3.51956L10.7513 3.51911V1.90451C10.5756 1.88255 9.9727 1.83337 9.27123 1.83337C7.80675 1.83337 6.80425 2.67465 6.80425 4.21968V5.551H5.14795V7.35627H6.80425V12H0.708333C0.317135 12 0 11.7015 0 11.3333V0.666667C0 0.29848 0.317135 0 0.708333 0H12.0417C12.4329 0 12.75 0.29848 12.75 0.666667V11.3333C12.75 11.7015 12.4329 12 12.0417 12H8.78503Z" fill="white"/>
</svg>
