<svg width="28" height="28" viewBox="0 0 28 28" fill="none" xmlns="http://www.w3.org/2000/svg">
<path d="M19.2926 28V17.1646H22.9206L23.4637 12.9523H19.2926V10.263C19.2926 9.04344 19.6311 8.21231 21.38 8.21231L23.6107 8.21126V4.44385C23.2248 4.39261 21.9008 4.27787 20.3604 4.27787C17.1442 4.27787 14.9427 6.24086 14.9427 9.84592V12.9523H11.3053V17.1646H14.9427V28H1.55556C0.696453 28 0 27.3036 0 26.4444V1.55556C0 0.696453 0.696453 0 1.55556 0H26.4444C27.3036 0 28 0.696453 28 1.55556V26.4444C28 27.3036 27.3036 28 26.4444 28H19.2926Z" fill="#D50032"/>
</svg>
