<svg width="14" height="14" viewBox="0 0 14 14" fill="none" xmlns="http://www.w3.org/2000/svg">
<g clip-path="url(#clip0_14_1008)">
<path d="M7 0C3.1381 0 0 3.1381 0 7C0 10.8619 3.1381 14 7 14C10.8506 14 13.98 10.8798 13.9983 7.0336C13.9994 7.02243 14 7.01122 14 7C14 6.98812 13.9993 6.97625 13.998 6.96444C13.998 6.96388 13.998 6.96332 13.998 6.96276C13.9777 3.11836 10.8493 0 7 0ZM6.65 0.7378V3.75704C5.80538 3.73184 5.00584 3.61648 4.28316 3.43112C4.41126 3.0821 4.55672 2.75842 4.7173 2.46666C5.2563 1.48806 5.93614 0.88704 6.65 0.7378ZM7.35 0.7378C8.064 0.8869 8.74384 1.4882 9.2827 2.4668C9.44328 2.75842 9.58874 3.0821 9.71684 3.43112C8.99416 3.61648 8.19462 3.73198 7.35 3.75704V0.7378ZM4.84232 1.078C4.56876 1.37984 4.3211 1.7346 4.10396 2.12884C3.91832 2.46624 3.75326 2.83584 3.6099 3.23078C3.19186 3.08798 2.8077 2.92096 2.46666 2.73308C2.44328 2.72034 2.42144 2.70704 2.39862 2.69402C3.07481 1.97075 3.91203 1.41714 4.84232 1.07814V1.078ZM9.15768 1.078C10.088 1.41704 10.9252 1.9707 11.6014 2.69402C11.5786 2.70704 11.5566 2.72034 11.5333 2.73322C11.1923 2.92082 10.808 3.08826 10.3898 3.23106C10.2467 2.83598 10.0818 2.46624 9.89604 2.12884C9.6789 1.7346 9.43124 1.37984 9.15768 1.078ZM1.9439 3.2389C2.0048 3.2753 2.0657 3.3117 2.12898 3.3467C2.51258 3.55796 2.93748 3.7429 3.395 3.89872C3.16064 4.7362 3.02008 5.6665 2.99306 6.65H0.71008C0.776317 5.41624 1.20555 4.22955 1.9439 3.2389ZM12.0561 3.2389C12.7944 4.22955 13.2237 5.41624 13.2899 6.65H11.0046C10.9775 5.66678 10.8375 4.73648 10.6039 3.899C11.0618 3.74318 11.487 3.5581 11.871 3.34656C11.9342 3.31184 11.9952 3.2753 12.0561 3.2389ZM4.06798 4.09962C4.86108 4.30626 5.73216 4.43016 6.65 4.45536V6.65H3.69362C3.72078 5.73342 3.85406 4.8692 4.06798 4.09962ZM9.93202 4.09962C10.1459 4.8692 10.2792 5.73342 10.3064 6.65H7.35V4.45508C8.2677 4.42988 9.13906 4.30612 9.93202 4.09962ZM0.71022 7.35H2.99306C3.02008 8.3335 3.16064 9.26366 3.395 10.101C2.93762 10.2571 2.51272 10.4422 2.12898 10.6534C2.06584 10.6882 2.0048 10.7248 1.9439 10.7612C1.20553 9.77055 0.77643 8.58381 0.71022 7.35ZM3.69362 7.35H6.65V9.5424C5.73188 9.5676 4.8608 9.6922 4.0677 9.89926C3.85392 9.12996 3.72078 8.26616 3.69362 7.35ZM7.35 7.35H10.3064C10.2792 8.26616 10.1461 9.12996 9.9323 9.89926C9.1392 9.6922 8.26812 9.56774 7.35 9.5424V7.35ZM11.0047 7.35H13.2899C13.2237 8.58376 12.7944 9.77045 12.0561 10.7611C11.9952 10.7247 11.9343 10.6883 11.871 10.6533C11.4871 10.4419 11.0618 10.2568 10.6042 10.1007C10.838 9.26338 10.9778 8.33322 11.0047 7.35ZM6.65 10.243V13.2622C5.936 13.1131 5.25616 12.5118 4.7173 11.5332C4.55672 11.2416 4.41126 10.9179 4.28316 10.5689C5.00584 10.3835 5.80538 10.268 6.65 10.243ZM7.35 10.243C8.19462 10.2682 8.99416 10.3835 9.71684 10.5689C9.58874 10.9179 9.44328 11.2416 9.2827 11.5333C8.7437 12.5119 8.06386 13.1131 7.35 13.2623V10.243ZM10.3898 10.7688C10.808 10.9116 11.1923 11.0789 11.5333 11.2668C11.5567 11.2795 11.5786 11.2928 11.6014 11.3058C10.9252 12.0292 10.088 12.5828 9.15768 12.9219C9.43124 12.62 9.6789 12.2653 9.89604 11.871C10.0817 11.5336 10.2466 11.164 10.3898 10.7688ZM3.6099 10.7691C3.75326 11.164 3.91832 11.5336 4.1041 11.871C4.3211 12.2653 4.56876 12.62 4.84232 12.9219C3.91202 12.5828 3.07479 12.0292 2.39862 11.3058C2.42144 11.2928 2.44342 11.2795 2.46666 11.2666C2.8077 11.079 3.19186 10.9119 3.6099 10.7691Z" fill="white"/>
</g>
<defs>
<clipPath id="clip0_14_1008">
<rect width="14" height="14" fill="white"/>
</clipPath>
</defs>
</svg>
