<svg width="26" height="25" viewBox="0 0 26 25" fill="none" xmlns="http://www.w3.org/2000/svg">
<path d="M18.85 0C16.5208 0.00370031 14.3389 1.17961 13 3.15216C12.3402 2.18007 11.4644 1.38632 10.4463 0.837757C9.42828 0.289191 8.29776 0.0018732 7.15 0C3.341 0 0 3.66813 0 7.84914C0 11.924 2.223 16.1207 6.42893 19.9861C8.37774 21.7736 10.5153 23.3276 12.8011 24.6185C12.8626 24.6513 12.9308 24.6685 13 24.6685C13.0692 24.6685 13.1374 24.6513 13.1989 24.6185C15.4839 23.3274 17.6208 21.7735 19.569 19.9861C23.7771 16.1207 26 11.924 26 7.84914C26 3.66813 22.659 0 18.85 0ZM13 23.7101C11.4084 22.8011 0.866667 16.4499 0.866667 7.84914C0.866667 4.14575 3.8025 0.897044 7.15 0.897044C9.4178 0.901193 11.5083 2.16748 12.6225 4.21213C12.7059 4.34394 12.8478 4.42327 13 4.42327C13.1522 4.42327 13.2941 4.34394 13.3775 4.21213C14.4917 2.16748 16.5822 0.901193 18.85 0.897044C22.1975 0.897044 25.1333 4.14575 25.1333 7.84914C25.1333 16.4499 14.5916 22.8011 13 23.7101Z" fill="#6B6B6B"/>
</svg>
