<svg width="27" height="27" viewBox="0 0 27 27" fill="none" xmlns="http://www.w3.org/2000/svg">
<path d="M19.1083 0.5C16.809 0.503529 14.6551 1.62506 13.3333 3.50637C12.682 2.57924 11.8174 1.8222 10.8124 1.29901C9.8074 0.775816 8.69138 0.501787 7.55833 0.5C3.79817 0.5 0.5 3.99847 0.5 7.98611C0.5 11.8725 2.6945 15.8751 6.84651 19.5618C8.77034 21.2666 10.8805 22.7487 13.137 23.9799C13.1977 24.0112 13.265 24.0275 13.3333 24.0275C13.4016 24.0275 13.469 24.0112 13.5297 23.9799C15.7854 22.7486 17.8949 21.2665 19.8181 19.5618C23.9722 15.8751 26.1667 11.8725 26.1667 7.98611C26.1667 3.99847 22.8685 0.5 19.1083 0.5ZM13.3333 23.1135C11.7622 22.2465 1.35556 16.1891 1.35556 7.98611C1.35556 4.454 4.25375 1.35556 7.55833 1.35556C9.79706 1.35951 11.8607 2.56724 12.9607 4.51731C13.043 4.64303 13.1831 4.71869 13.3333 4.71869C13.4835 4.71869 13.6237 4.64303 13.706 4.51731C14.8059 2.56724 16.8696 1.35951 19.1083 1.35556C22.4129 1.35556 25.3111 4.454 25.3111 7.98611C25.3111 16.1891 14.9045 22.2465 13.3333 23.1135Z" fill="white" stroke="white"/>
</svg>
