<svg width="14" height="14" viewBox="0 0 14 14" fill="none" xmlns="http://www.w3.org/2000/svg">
<path d="M7.35141 0C8.10168 0.00124 8.48188 0.00520667 8.81041 0.0149867L8.93981 0.01922C9.08928 0.0245334 9.23675 0.0312001 9.41455 0.0395335C10.1239 0.0723068 10.6079 0.184533 11.0329 0.349533C11.4723 0.518973 11.8434 0.747867 12.2139 1.11842C12.5839 1.48897 12.8129 1.8612 12.9829 2.29953C13.1473 2.72397 13.2595 3.20842 13.2929 3.91787C13.3008 4.09564 13.3072 4.24311 13.3125 4.39261L13.3167 4.52199C13.3264 4.85049 13.3309 5.23075 13.3323 5.98101L13.3328 6.47815C13.3329 6.53888 13.3329 6.60155 13.3329 6.66621L13.3328 6.85428L13.3324 7.35141C13.3311 8.10168 13.3272 8.48188 13.3174 8.81041L13.3131 8.93981C13.3079 9.08928 13.3012 9.23675 13.2929 9.41455C13.2601 10.1239 13.1473 10.6079 12.9829 11.0329C12.8134 11.4723 12.5839 11.8434 12.2139 12.2139C11.8434 12.5839 11.4706 12.8129 11.0329 12.9829C10.6079 13.1473 10.1239 13.2595 9.41455 13.2929C9.23675 13.3008 9.08928 13.3072 8.93981 13.3125L8.81041 13.3167C8.48188 13.3264 8.10168 13.3309 7.35141 13.3323L6.85428 13.3328C6.79355 13.3329 6.73088 13.3329 6.66621 13.3329L6.47815 13.3328L5.98101 13.3324C5.23075 13.3311 4.85049 13.3272 4.52199 13.3174L4.39261 13.3131C4.24311 13.3079 4.09564 13.3012 3.91787 13.2929C3.20842 13.2601 2.72509 13.1473 2.29953 12.9829C1.86064 12.8134 1.48897 12.5839 1.11842 12.2139C0.747867 11.8434 0.519533 11.4706 0.349533 11.0329C0.184533 10.6079 0.0728668 10.1239 0.0395335 9.41455C0.0316135 9.23675 0.0251534 9.08928 0.01992 8.93981L0.0157267 8.81041C0.00597339 8.48188 0.00152678 8.10168 8.67844e-05 7.35141L0 5.98101C0.00124 5.23075 0.00520667 4.85049 0.0149867 4.52199L0.01922 4.39261C0.0245334 4.24311 0.0312001 4.09564 0.0395335 3.91787C0.0723068 3.20787 0.184533 2.72453 0.349533 2.29953C0.518973 1.86064 0.747867 1.48897 1.11842 1.11842C1.48897 0.747867 1.8612 0.519533 2.29953 0.349533C2.72453 0.184533 3.20787 0.0728668 3.91787 0.0395335C4.09564 0.0316135 4.24311 0.0251534 4.39261 0.01992L4.52199 0.0157267C4.85049 0.00597339 5.23075 0.00152678 5.98101 8.67844e-05L7.35141 0ZM6.66621 3.33287C4.82427 3.33287 3.33287 4.82589 3.33287 6.66621C3.33287 8.50815 4.82589 9.99955 6.66621 9.99955C8.50815 9.99955 9.99955 8.50648 9.99955 6.66621C9.99955 4.82427 8.50648 3.33287 6.66621 3.33287ZM6.66621 4.6662C7.77081 4.6662 8.66621 5.56128 8.66621 6.66621C8.66621 7.77081 7.77108 8.66621 6.66621 8.66621C5.56161 8.66621 4.6662 7.77108 4.6662 6.66621C4.6662 5.56161 5.56128 4.6662 6.66621 4.6662ZM10.1662 2.33287C9.70668 2.33287 9.33288 2.70613 9.33288 3.16563C9.33288 3.62513 9.70615 3.99897 10.1662 3.99897C10.6257 3.99897 10.9995 3.62571 10.9995 3.16563C10.9995 2.70613 10.6251 2.33229 10.1662 2.33287Z" fill="white"/>
</svg>
