<svg width="32" height="32" viewBox="0 0 32 32" fill="none" xmlns="http://www.w3.org/2000/svg">
<path d="M17.1533 0C18.9039 0.00289333 19.7911 0.0121489 20.5576 0.0349689L20.8596 0.0448468C21.2083 0.0572445 21.5524 0.0728003 21.9673 0.0922447C23.6225 0.168716 24.7517 0.430578 25.7434 0.815578C26.7687 1.21094 27.6346 1.74502 28.4992 2.60965C29.3625 3.47427 29.8967 4.3428 30.2934 5.36558C30.677 6.35594 30.9389 7.48631 31.0167 9.14169C31.0352 9.55649 31.0502 9.90058 31.0625 10.2494L31.0723 10.5513C31.095 11.3178 31.1054 12.2051 31.1087 13.9557L31.1099 15.1157C31.1101 15.2574 31.1101 15.4036 31.1101 15.5545L31.1099 15.9933L31.109 17.1533C31.106 18.9039 31.0968 19.7911 31.074 20.5576L31.064 20.8596C31.0517 21.2083 31.0362 21.5524 31.0167 21.9673C30.9402 23.6225 30.677 24.7517 30.2934 25.7434C29.898 26.7687 29.3625 27.6346 28.4992 28.4992C27.6346 29.3625 26.7648 29.8967 25.7434 30.2934C24.7517 30.677 23.6225 30.9389 21.9673 31.0167C21.5524 31.0352 21.2083 31.0502 20.8596 31.0625L20.5576 31.0723C19.7911 31.095 18.9039 31.1054 17.1533 31.1087L15.9933 31.1099C15.8516 31.1101 15.7054 31.1101 15.5545 31.1101L15.1157 31.1099L13.9557 31.109C12.2051 31.106 11.3178 31.0968 10.5513 31.074L10.2494 31.064C9.90058 31.0517 9.55649 31.0362 9.14169 31.0167C7.48631 30.9402 6.35854 30.677 5.36558 30.2934C4.34149 29.898 3.47427 29.3625 2.60965 28.4992C1.74502 27.6346 1.21224 26.7648 0.815578 25.7434C0.430578 24.7517 0.170023 23.6225 0.0922447 21.9673C0.0737647 21.5524 0.0586912 21.2083 0.0464801 20.8596L0.0366957 20.5576C0.0139379 19.7911 0.0035625 18.9039 0.000202497 17.1533L0 13.9557C0.00289333 12.2051 0.0121489 11.3178 0.0349689 10.5513L0.0448468 10.2494C0.0572445 9.90058 0.0728003 9.55649 0.0922447 9.14169C0.168716 7.48502 0.430578 6.35725 0.815578 5.36558C1.21094 4.34149 1.74502 3.47427 2.60965 2.60965C3.47427 1.74502 4.3428 1.21224 5.36558 0.815578C6.35725 0.430578 7.48502 0.170023 9.14169 0.0922447C9.55649 0.0737647 9.90058 0.0586912 10.2494 0.0464801L10.5513 0.0366957C11.3178 0.0139379 12.2051 0.0035625 13.9557 0.000202497L17.1533 0ZM15.5545 7.77669C11.2566 7.77669 7.77669 11.2604 7.77669 15.5545C7.77669 19.8523 11.2604 23.3323 15.5545 23.3323C19.8523 23.3323 23.3323 19.8485 23.3323 15.5545C23.3323 11.2566 19.8485 7.77669 15.5545 7.77669ZM15.5545 10.8878C18.1319 10.8878 20.2212 12.9763 20.2212 15.5545C20.2212 18.1319 18.1325 20.2212 15.5545 20.2212C12.9771 20.2212 10.8878 18.1325 10.8878 15.5545C10.8878 12.9771 12.9763 10.8878 15.5545 10.8878ZM23.7212 5.44336C22.6489 5.44336 21.7767 6.31431 21.7767 7.38648C21.7767 8.45863 22.6477 9.33094 23.7212 9.33094C24.7933 9.33094 25.6656 8.45998 25.6656 7.38648C25.6656 6.31431 24.7919 5.442 23.7212 5.44336Z" fill="#D50032"/>
</svg>
