<svg width="159" height="29" viewBox="0 0 159 29" fill="none" xmlns="http://www.w3.org/2000/svg">
<path d="M57.3959 14.3401C57.3959 18.5515 58.3555 21.8567 60.2746 24.2733C62.1937 26.6722 64.8414 27.8628 68.2354 27.8628C71.4695 27.8628 74.0816 26.6545 76.0896 24.2378C78.0442 21.8389 79.0215 18.5515 79.0215 14.3401C79.0215 10.1465 78.062 6.84135 76.1784 4.44245C74.2237 2.0791 71.5761 0.888533 68.1999 0.888533C64.717 0.888533 62.0693 2.06133 60.2213 4.40692C58.3377 6.71696 57.3959 10.0221 57.3959 14.3401ZM53.0068 14.2513C53.0068 10.1643 54.4284 6.7525 57.3071 4.03375C60.0791 1.35054 63.6864 0.0178223 68.111 0.0178223C72.5712 0.0178223 76.2317 1.36831 79.0926 4.06929C81.9713 6.80581 83.3929 10.1998 83.3929 14.2513C83.3929 18.3561 81.9358 21.7856 79.0215 24.5754C76.0718 27.3475 72.4823 28.7513 68.2354 28.7513C63.8463 28.7513 60.2213 27.3652 57.3426 24.611C54.4462 21.8567 53.0068 18.4094 53.0068 14.2513Z" fill="#79001C"/>
<path d="M135.724 14.6955C135.902 14.6955 136.062 14.7132 136.24 14.7132C136.399 14.731 136.595 14.7488 136.826 14.7488C137.057 14.7665 137.323 14.7843 137.643 14.7843C137.945 14.7843 138.301 14.7843 138.692 14.7843H142.388C142.814 14.7843 143.187 14.7843 143.49 14.7843C143.809 14.7843 144.076 14.7665 144.307 14.7488C144.538 14.7488 144.751 14.731 144.964 14.7132C145.178 14.7132 145.373 14.6955 145.586 14.6955L140.646 4.42463L135.724 14.6955ZM125.613 28.5558V28.2892C126.573 27.7028 127.639 26.5656 128.794 24.8952C129.398 24.0778 129.985 23.1538 130.589 22.1587C131.175 21.1458 131.779 20.0263 132.401 18.7825L141.677 0H141.961L151.788 18.9424C152.712 20.7371 153.512 22.212 154.187 23.3848C154.844 24.5576 155.413 25.4283 155.857 25.9969C156.248 26.6011 156.657 27.0809 157.065 27.4363C157.474 27.8094 157.883 28.0937 158.274 28.2892L158.238 28.5558C157.901 28.5202 157.563 28.5024 157.225 28.4847C156.87 28.4669 156.55 28.4491 156.248 28.4136C155.928 28.4136 155.626 28.4136 155.342 28.3958C155.075 28.3781 154.809 28.3781 154.578 28.3781C154.222 28.3781 153.814 28.3781 153.387 28.3958C152.978 28.4136 152.499 28.4136 152.001 28.4136C151.486 28.4491 150.935 28.4669 150.366 28.4847C149.78 28.5024 149.158 28.5202 148.518 28.5558V28.2892C149.158 28.0404 149.638 27.7384 149.958 27.4007C150.242 27.1164 150.384 26.6899 150.384 26.1213C150.384 25.7304 150.224 25.0551 149.904 24.1311C149.762 23.6691 149.531 23.0649 149.176 22.3009C148.82 21.5368 148.376 20.6127 147.879 19.5466L146.137 15.8505C145.942 15.8149 145.746 15.7972 145.551 15.7972C145.373 15.7972 145.178 15.7972 144.982 15.7972C144.751 15.7794 144.538 15.7616 144.307 15.7616C144.076 15.7616 143.827 15.7616 143.543 15.7616H137.679C137.341 15.7616 137.039 15.7616 136.773 15.7616C136.488 15.7616 136.275 15.7794 136.097 15.7972C135.902 15.7972 135.724 15.7972 135.546 15.7972C135.387 15.7972 135.209 15.8149 135.049 15.8505L133.556 19.1201C133.219 19.8486 132.917 20.5239 132.668 21.1636C132.401 21.7855 132.206 22.3364 132.064 22.8517C131.726 23.8468 131.566 24.6109 131.566 25.144C131.566 25.9081 131.762 26.5656 132.152 27.0986C132.543 27.5784 133.219 27.9871 134.143 28.2892V28.5558C133.929 28.5202 133.681 28.5024 133.432 28.4847C133.183 28.4669 132.917 28.4491 132.668 28.4136C132.384 28.4136 132.028 28.4136 131.619 28.3958C131.211 28.3781 130.731 28.3781 130.198 28.3781C129.683 28.3781 129.221 28.3781 128.776 28.3958C128.332 28.4136 127.941 28.4136 127.603 28.4136C127.266 28.4491 126.928 28.4669 126.591 28.4847C126.253 28.5024 125.933 28.5202 125.613 28.5558Z" fill="#79001C"/>
<path d="M95.3698 12.652C95.6008 12.6697 95.8318 12.6875 96.0628 12.6875C96.2938 12.6875 96.5426 12.7053 96.7913 12.7408H97.662C103.579 12.7408 107.435 12.2966 109.23 11.3903C111.06 10.5196 111.967 9.00919 111.967 6.8413C111.967 4.88664 111.06 3.42953 109.23 2.46998C107.506 1.54596 104.699 1.08395 100.825 1.08395H98.2307C97.7687 1.08395 97.3067 1.08395 96.8446 1.10172C96.3826 1.11949 95.8851 1.13725 95.3698 1.17279V12.652ZM113.264 28.2892C113.122 27.9161 112.979 27.5429 112.82 27.1875C112.677 26.8143 112.535 26.4589 112.393 26.0858C112.251 25.7304 112.109 25.375 111.967 25.0196C111.824 24.6642 111.664 24.2733 111.522 23.8646L110.403 20.5772C109.514 18.0895 108.27 16.3125 106.671 15.2463C105.125 14.2335 102.318 13.7359 98.2662 13.7359H96.7913C96.4537 13.7892 96.1694 13.8248 95.9384 13.8248C95.7074 13.8248 95.5119 13.8248 95.3698 13.8248V18.4626C95.3698 22.2298 95.5652 24.6998 95.9739 25.8548C96.4004 26.992 97.2 27.7028 98.3551 27.9871L98.3195 28.3248C97.8575 28.307 97.3955 28.2892 96.9513 28.2892C96.507 28.2892 96.0805 28.2714 95.6718 28.2537C95.2631 28.2537 94.8722 28.2359 94.4991 28.2181C94.1259 28.2004 93.7527 28.2004 93.3796 28.2004C93.0064 28.2004 92.6332 28.2004 92.2779 28.2181C91.9047 28.2359 91.5315 28.2537 91.1228 28.2537C90.7141 28.2714 90.3232 28.2892 89.95 28.2892C89.5769 28.2892 89.1859 28.307 88.7772 28.3248L88.7417 27.9871C89.8612 27.7028 90.6253 27.0453 91.034 26.0325C91.4427 24.9663 91.6381 22.443 91.6381 18.4626V5.15319C91.6381 3.25184 91.4782 2.00797 91.1228 1.42157C90.803 0.88848 90.181 0.533088 89.257 0.390931V0C89.719 0.0355392 90.181 0.0355392 90.643 0.0355392C91.1051 0.0355392 91.5671 0.0355392 92.0291 0.0355392C92.5266 0.0710784 93.0953 0.088848 93.7172 0.088848C94.3569 0.088848 95.0854 0.088848 95.8851 0.088848H100.487C102.069 0.088848 103.419 0.088848 104.557 0.106618C105.676 0.124387 106.6 0.159926 107.329 0.213235C108.679 0.302083 109.816 0.479779 110.74 0.728554C112.535 1.19056 113.921 1.97243 114.899 3.0386C115.911 4.10478 116.427 5.34865 116.427 6.75245C116.427 8.86703 115.467 10.5018 113.566 11.6569C111.629 12.9007 108.999 13.5227 105.676 13.5582C107.968 13.8248 109.816 14.4289 111.22 15.3707C112.731 16.3303 113.832 17.6274 114.561 19.28C114.756 19.6887 114.97 20.1685 115.183 20.7549C115.414 21.3235 115.663 21.9988 115.947 22.7451C117.102 25.837 118.293 27.5429 119.501 27.8627V28.2892C119.217 28.2892 118.897 28.2892 118.541 28.2714C118.204 28.2537 117.831 28.2537 117.422 28.2537C117.013 28.2181 116.693 28.2004 116.445 28.2004C116.196 28.2004 116.018 28.2004 115.911 28.2004C115.698 28.2004 115.503 28.2004 115.289 28.2004C115.094 28.2004 114.881 28.2181 114.65 28.2537C114.419 28.2537 114.188 28.2537 113.975 28.2537C113.761 28.2537 113.513 28.2537 113.264 28.2892Z" fill="#79001C"/>
<path d="M37.4761 28.3425V28.0404C38.6489 27.845 39.4663 27.2053 39.9283 26.1036C40.3548 25.144 40.568 22.8162 40.568 19.1379V5.41973C40.568 5.17096 40.568 4.83333 40.5324 4.46017C40.4969 4.06924 40.4614 3.66054 40.4081 3.25184C40.3548 2.82537 40.2837 2.45221 40.2126 2.13235C40.1415 1.79473 40.0527 1.56373 39.9283 1.42157C39.5373 0.90625 38.8621 0.533088 37.9559 0.302083V0H38.56C39.4663 0.0533088 40.2304 0.106618 40.8523 0.124387C41.4742 0.159926 41.9896 0.177696 42.3805 0.177696C43.038 0.177696 43.7132 0.159926 44.4062 0.124387C45.0992 0.106618 45.7745 0.0533088 46.432 0H46.894H46.9473V0.302083C46.0588 0.479779 45.4013 0.817402 44.9571 1.33272C44.8505 1.47488 44.7616 1.72365 44.6905 2.06127C44.6195 2.41667 44.5484 2.78983 44.4951 3.19853C44.4418 3.625 44.3885 4.0337 44.3529 4.42463C44.3351 4.83333 44.3174 5.17096 44.3174 5.41973V19.3511C44.3174 22.7629 44.5306 25.0018 44.9571 26.068C45.4013 27.0809 46.2187 27.7384 47.4093 28.0404V28.3425C46.8407 28.3248 46.3253 28.307 45.8456 28.307C45.3658 28.307 44.9215 28.2892 44.4951 28.2714C44.0686 28.2714 43.6599 28.2537 43.2867 28.2359C42.9136 28.2181 42.576 28.2181 42.2561 28.2181C41.8474 28.2181 41.4565 28.2181 41.1011 28.2359C40.7279 28.2537 40.337 28.2714 39.9283 28.2714C39.5373 28.2892 39.1286 28.307 38.7199 28.307C38.329 28.307 37.9025 28.3248 37.4761 28.3425Z" fill="#79001C"/>
<path d="M0 28.1826V27.8272C1.36826 27.4896 2.34559 26.4767 2.93198 24.7708C3.46507 23.1716 3.74939 20.0441 3.74939 15.4062V5.81066C3.74939 3.90931 3.53615 2.6299 3.14522 1.97243C2.73652 1.35049 1.97243 0.817402 0.852941 0.390931V0.0355392C1.15502 0.0355392 1.43934 0.0533088 1.74142 0.0710784C2.0435 0.0710784 2.36336 0.106618 2.71875 0.124387C3.05637 0.159926 3.34069 0.177696 3.57169 0.177696C3.8027 0.177696 3.98039 0.177696 4.08701 0.177696C4.22917 0.177696 4.42463 0.177696 4.69118 0.177696C4.93995 0.177696 5.29534 0.159926 5.72181 0.124387C6.04167 0.106618 6.30821 0.088848 6.55698 0.088848C6.80576 0.088848 7.01899 0.0710784 7.23223 0.0355392C9.20466 2.3989 11.0705 4.56679 12.8474 6.53922C14.6066 8.51164 16.2592 10.3419 17.8051 11.9945C19.3511 13.6648 20.8793 15.2641 22.3897 16.7745C23.9001 18.3027 25.375 19.7598 26.8499 21.1636V11.6213C26.8499 7.46323 26.5833 4.69118 26.068 3.30515C25.5527 1.97243 24.6109 0.941789 23.2249 0.266544V0C23.3137 0 23.4203 0 23.5447 0C23.6869 0 23.829 0.0177696 24.0067 0.0355392C25.4994 0.124387 26.5478 0.177696 27.152 0.177696C27.6317 0.177696 28.2359 0.159926 28.9467 0.124387C29.6752 0.106618 30.5282 0.0533088 31.5233 0H31.701V0.266544C30.2972 0.835172 29.3021 1.88358 28.7335 3.39399C28.4847 4.17586 28.2714 5.31311 28.1293 6.8413C27.9871 8.35172 27.916 10.2886 27.916 12.5987V29H27.5251C25.5527 26.4767 23.0294 23.4559 19.9375 19.9375C16.8634 16.4191 13.185 12.3676 8.95588 7.74755C8.03186 6.77022 7.23223 5.89951 6.55698 5.17096C5.88174 4.42463 5.31311 3.8027 4.86887 3.30515V14.1091C4.86887 19.7953 5.11765 23.367 5.63297 24.8597C6.18382 26.4056 7.14338 27.4007 8.51164 27.8272V28.1826H5.93505H3.09191H0Z" fill="#79001C"/>
</svg>
