<svg width="160" height="29" viewBox="0 0 160 29" fill="none" xmlns="http://www.w3.org/2000/svg">
<path d="M0 28.1826V27.8272C1.36826 27.4896 2.34559 26.4767 2.93198 24.7708C3.46507 23.1716 3.74939 20.0441 3.74939 15.4062V5.81066C3.74939 3.90931 3.53615 2.6299 3.14522 1.97243C2.73652 1.35049 1.97243 0.817402 0.852941 0.390931V0.0355392C1.15502 0.0355392 1.43934 0.0533088 1.74142 0.0710784C2.0435 0.0710784 2.36336 0.106618 2.71875 0.124387C3.05637 0.159926 3.34069 0.177696 3.57169 0.177696C3.8027 0.177696 3.98039 0.177696 4.08701 0.177696C4.22917 0.177696 4.42463 0.177696 4.69118 0.177696C4.93995 0.177696 5.29534 0.159926 5.72181 0.124387C6.04167 0.106618 6.30821 0.088848 6.55698 0.088848C6.80576 0.088848 7.01899 0.0710784 7.23223 0.0355392C9.20466 2.3989 11.0705 4.56679 12.8474 6.53922C14.6066 8.51164 16.2592 10.3419 17.8051 11.9945C19.3511 13.6648 20.8793 15.2641 22.3897 16.7745C23.9001 18.3027 25.375 19.7598 26.8499 21.1636V11.6213C26.8499 7.46323 26.5833 4.69118 26.068 3.30515C25.5527 1.97243 24.6109 0.941789 23.2249 0.266544V0C23.3137 0 23.4203 0 23.5447 0C23.6869 0 23.829 0.0177696 24.0067 0.0355392C25.4994 0.124387 26.5478 0.177696 27.152 0.177696C27.6317 0.177696 28.2359 0.159926 28.9467 0.124387C29.6752 0.106618 30.5282 0.0533088 31.5233 0H31.701V0.266544C30.2972 0.835172 29.3021 1.88358 28.7335 3.39399C28.4847 4.17586 28.2714 5.31311 28.1293 6.8413C27.9871 8.35172 27.916 10.2886 27.916 12.5987V29H27.5251C25.5527 26.4767 23.0294 23.4559 19.9375 19.9375C16.8634 16.4191 13.185 12.3676 8.95588 7.74755C8.03186 6.77022 7.23223 5.89951 6.55698 5.17096C5.88174 4.42463 5.31311 3.8027 4.86887 3.30515V14.1091C4.86887 19.7953 5.11765 23.367 5.63297 24.8597C6.18382 26.4056 7.14338 27.4007 8.51164 27.8272V28.1826H5.93505H3.09191H0Z" fill="white"/>
<path d="M37.701 28.6713V28.3692C38.8738 28.1737 39.6912 27.534 40.1532 26.4323C40.5797 25.4727 40.7929 23.1449 40.7929 19.4666V5.74847C40.7929 5.49969 40.7929 5.16207 40.7574 4.78891C40.7218 4.39798 40.6863 3.98927 40.633 3.58057C40.5797 3.1541 40.5086 2.78094 40.4375 2.46109C40.3664 2.12347 40.2776 1.89246 40.1532 1.7503C39.7623 1.23499 39.087 0.861824 38.1808 0.630819V0.328735H38.7849C39.6912 0.382044 40.4553 0.435353 41.0772 0.453123C41.6992 0.488662 42.2145 0.506431 42.6054 0.506431C43.2629 0.506431 43.9381 0.488662 44.6311 0.453123C45.3242 0.435353 45.9994 0.382044 46.6569 0.328735H47.1189H47.1722V0.630819C46.2837 0.808515 45.6262 1.14614 45.182 1.66146C45.0754 1.80361 44.9865 2.05239 44.9154 2.39001C44.8444 2.7454 44.7733 3.11856 44.72 3.52726C44.6667 3.95374 44.6134 4.36244 44.5778 4.75337C44.5601 5.16207 44.5423 5.49969 44.5423 5.74847V19.6798C44.5423 23.0916 44.7555 25.3306 45.182 26.3967C45.6262 27.4096 46.4436 28.0671 47.6342 28.3692V28.6713C47.0656 28.6535 46.5503 28.6357 46.0705 28.6357C45.5907 28.6357 45.1465 28.6179 44.72 28.6002C44.2935 28.6002 43.8848 28.5824 43.5117 28.5646C43.1385 28.5469 42.8009 28.5469 42.481 28.5469C42.0723 28.5469 41.6814 28.5469 41.326 28.5646C40.9528 28.5824 40.5619 28.6002 40.1532 28.6002C39.7623 28.6179 39.3536 28.6357 38.9449 28.6357C38.5539 28.6357 38.1275 28.6535 37.701 28.6713Z" fill="white"/>
<path d="M58.0232 14.4556C58.0232 18.667 58.9828 21.9721 60.9019 24.3888C62.821 26.7877 65.4687 27.9782 68.8627 27.9782C72.0968 27.9782 74.7089 26.7699 76.7169 24.3532C78.6715 21.9543 79.6489 18.667 79.6489 14.4556C79.6489 10.2619 78.6893 6.9568 76.8057 4.5579C74.8511 2.19454 72.2034 1.00398 68.8272 1.00398C65.3443 1.00398 62.6967 2.17677 60.8486 4.52236C58.965 6.83241 58.0232 10.1376 58.0232 14.4556ZM53.6342 14.3667C53.6342 10.2797 55.0557 6.86795 57.9344 4.1492C60.7065 1.46599 64.3137 0.13327 68.7383 0.13327C73.1985 0.13327 76.859 1.48376 79.7199 4.18474C82.5986 6.92126 84.0202 10.3153 84.0202 14.3667C84.0202 18.4715 82.5631 21.901 79.6489 24.6909C76.6991 27.4629 73.1096 28.8667 68.8627 28.8667C64.4736 28.8667 60.8486 27.4807 57.9699 24.7264C55.0735 21.9721 53.6342 18.5248 53.6342 14.3667Z" fill="white"/>
<path d="M96.6483 12.9896C96.8793 13.0074 97.1103 13.0251 97.3413 13.0251C97.5723 13.0251 97.8211 13.0429 98.0698 13.0784H98.9405C104.858 13.0784 108.714 12.6342 110.509 11.7279C112.339 10.8572 113.245 9.34681 113.245 7.17892C113.245 5.22427 112.339 3.76716 110.509 2.8076C108.785 1.88358 105.977 1.42157 102.104 1.42157H99.5092C99.0472 1.42157 98.5852 1.42157 98.1231 1.43934C97.6611 1.45711 97.1636 1.47488 96.6483 1.51042V12.9896ZM114.542 28.6268C114.4 28.2537 114.258 27.8805 114.098 27.5251C113.956 27.152 113.814 26.7966 113.672 26.4234C113.529 26.068 113.387 25.7126 113.245 25.3572C113.103 25.0018 112.943 24.6109 112.801 24.2022L111.681 20.9148C110.793 18.4271 109.549 16.6501 107.95 15.5839C106.404 14.5711 103.596 14.0735 99.5447 14.0735H98.0698C97.7322 14.1268 97.4479 14.1624 97.2169 14.1624C96.9859 14.1624 96.7904 14.1624 96.6483 14.1624V18.8002C96.6483 22.5674 96.8437 25.0374 97.2524 26.1924C97.6789 27.3297 98.4785 28.0404 99.6336 28.3248L99.598 28.6624C99.136 28.6446 98.674 28.6268 98.2298 28.6268C97.7855 28.6268 97.3591 28.6091 96.9503 28.5913C96.5416 28.5913 96.1507 28.5735 95.7776 28.5558C95.4044 28.538 95.0312 28.538 94.6581 28.538C94.2849 28.538 93.9117 28.538 93.5564 28.5558C93.1832 28.5735 92.81 28.5913 92.4013 28.5913C91.9926 28.6091 91.6017 28.6268 91.2285 28.6268C90.8554 28.6268 90.4644 28.6446 90.0557 28.6624L90.0202 28.3248C91.1397 28.0404 91.9038 27.383 92.3125 26.3701C92.7212 25.3039 92.9166 22.7806 92.9166 18.8002V5.49081C92.9166 3.58946 92.7567 2.34559 92.4013 1.75919C92.0815 1.2261 91.4595 0.870712 90.5355 0.728555V0.337624C90.9975 0.373163 91.4595 0.373163 91.9216 0.373163C92.3836 0.373163 92.8456 0.373163 93.3076 0.373163C93.8051 0.408702 94.3738 0.426472 94.9957 0.426472C95.6354 0.426472 96.364 0.426472 97.1636 0.426472H101.766C103.347 0.426472 104.698 0.426472 105.835 0.444241C106.955 0.462011 107.879 0.49755 108.607 0.550859C109.958 0.639707 111.095 0.817403 112.019 1.06618C113.814 1.52819 115.2 2.31005 116.177 3.37623C117.19 4.4424 117.705 5.68628 117.705 7.09007C117.705 9.20466 116.746 10.8395 114.844 11.9945C112.907 13.2384 110.278 13.8603 106.955 13.8958C109.247 14.1624 111.095 14.7665 112.499 15.7083C114.009 16.6679 115.111 17.9651 115.839 19.6176C116.035 20.0263 116.248 20.5061 116.461 21.0925C116.692 21.6612 116.941 22.3364 117.225 23.0827C118.38 26.1746 119.571 27.8805 120.779 28.2004V28.6268C120.495 28.6268 120.175 28.6268 119.82 28.6091C119.482 28.5913 119.109 28.5913 118.7 28.5913C118.292 28.5558 117.972 28.538 117.723 28.538C117.474 28.538 117.297 28.538 117.19 28.538C116.977 28.538 116.781 28.538 116.568 28.538C116.373 28.538 116.159 28.5558 115.928 28.5913C115.697 28.5913 115.466 28.5913 115.253 28.5913C115.04 28.5913 114.791 28.5913 114.542 28.6268Z" fill="white"/>
<path d="M136.89 14.9176C137.068 14.9176 137.228 14.9354 137.406 14.9354C137.566 14.9531 137.761 14.9709 137.992 14.9709C138.223 14.9887 138.49 15.0064 138.809 15.0064C139.112 15.0064 139.467 15.0064 139.858 15.0064H143.554C143.98 15.0064 144.354 15.0064 144.656 15.0064C144.975 15.0064 145.242 14.9887 145.473 14.9709C145.704 14.9709 145.917 14.9531 146.131 14.9354C146.344 14.9354 146.539 14.9176 146.752 14.9176L141.813 4.64675L136.89 14.9176ZM126.779 28.7779V28.5113C127.739 27.9249 128.805 26.7877 129.96 25.1173C130.564 24.2999 131.151 23.3759 131.755 22.3808C132.341 21.368 132.945 20.2485 133.567 19.0046L142.843 0.222118H143.127L152.954 19.1645C153.878 20.9592 154.678 22.4341 155.353 23.6069C156.01 24.7797 156.579 25.6504 157.023 26.2191C157.414 26.8232 157.823 27.303 158.232 27.6584C158.64 28.0316 159.049 28.3159 159.44 28.5113L159.404 28.7779C159.067 28.7423 158.729 28.7246 158.392 28.7068C158.036 28.689 157.716 28.6713 157.414 28.6357C157.094 28.6357 156.792 28.6357 156.508 28.618C156.241 28.6002 155.975 28.6002 155.744 28.6002C155.388 28.6002 154.98 28.6002 154.553 28.618C154.145 28.6357 153.665 28.6357 153.167 28.6357C152.652 28.6713 152.101 28.689 151.532 28.7068C150.946 28.7246 150.324 28.7423 149.684 28.7779V28.5113C150.324 28.2626 150.804 27.9605 151.124 27.6229C151.408 27.3385 151.55 26.9121 151.55 26.3434C151.55 25.9525 151.39 25.2773 151.07 24.3532C150.928 23.8912 150.697 23.2871 150.342 22.523C149.987 21.7589 149.542 20.8349 149.045 19.7687L147.303 16.0726C147.108 16.0371 146.912 16.0193 146.717 16.0193C146.539 16.0193 146.344 16.0193 146.148 16.0193C145.917 16.0015 145.704 15.9838 145.473 15.9838C145.242 15.9838 144.993 15.9838 144.709 15.9838H138.845C138.507 15.9838 138.205 15.9838 137.939 15.9838C137.654 15.9838 137.441 16.0015 137.263 16.0193C137.068 16.0193 136.89 16.0193 136.713 16.0193C136.553 16.0193 136.375 16.0371 136.215 16.0726L134.722 19.3422C134.385 20.0708 134.083 20.746 133.834 21.3857C133.567 22.0077 133.372 22.5585 133.23 23.0738C132.892 24.0689 132.732 24.833 132.732 25.3661C132.732 26.1302 132.928 26.7877 133.319 27.3208C133.71 27.8005 134.385 28.2092 135.309 28.5113V28.7779C135.096 28.7423 134.847 28.7246 134.598 28.7068C134.349 28.689 134.083 28.6713 133.834 28.6357C133.55 28.6357 133.194 28.6357 132.786 28.618C132.377 28.6002 131.897 28.6002 131.364 28.6002C130.849 28.6002 130.387 28.6002 129.942 28.618C129.498 28.6357 129.107 28.6357 128.77 28.6357C128.432 28.6713 128.094 28.689 127.757 28.7068C127.419 28.7246 127.099 28.7423 126.779 28.7779Z" fill="white"/>
</svg>
