<svg width="44" height="28" viewBox="0 0 44 28" fill="none" xmlns="http://www.w3.org/2000/svg">
<path d="M16.8093 13.5546C16.8098 11.5044 17.2755 9.48097 18.1715 7.63569C19.0675 5.79042 20.3707 4.17113 21.9834 2.8991C19.9778 1.32702 17.5689 0.349251 15.0321 0.0775591C12.4954 -0.194133 9.93315 0.251217 7.6383 1.3627C5.34345 2.47418 3.4086 4.20695 2.05493 6.36292C0.701262 8.51889 -0.0166016 11.0111 -0.0166016 13.5546C-0.0166016 16.098 0.701262 18.5902 2.05493 20.7462C3.4086 22.9022 5.34345 24.6349 7.6383 25.7464C9.93315 26.8579 12.4954 27.3032 15.0321 27.0315C17.5689 26.7599 19.9778 25.7821 21.9834 24.21C20.3707 22.938 19.0675 21.3187 18.1715 19.4734C17.2755 17.6281 16.8098 15.6047 16.8093 13.5546Z" fill="#EB001B"/>
<path d="M44.0043 13.5546C44.0062 16.0963 43.2904 18.5871 41.939 20.7423C40.5875 22.8975 38.6549 24.6299 36.3622 25.7416C34.0695 26.8532 31.5092 27.2991 28.9742 27.0283C26.4393 26.7574 24.0319 25.7808 22.0276 24.2101C23.6407 22.9384 24.9441 21.3192 25.8402 19.4738C26.7363 17.6285 27.2018 15.6048 27.2018 13.5546C27.2018 11.5044 26.7363 9.4808 25.8402 7.63545C24.9441 5.7901 23.6407 4.17089 22.0276 2.89918C24.0319 1.32846 26.4393 0.351839 28.9742 0.0810081C31.5092 -0.189823 34.0695 0.256074 36.3622 1.3677C38.6549 2.47933 40.5875 4.2118 41.939 6.36697C43.2904 8.52214 44.0062 11.013 44.0043 13.5546Z" fill="#F79E1B"/>
</svg>
