<svg width="47" height="13" viewBox="0 0 47 13" fill="none" xmlns="http://www.w3.org/2000/svg">
<path fill-rule="evenodd" clip-rule="evenodd" d="M-0.901553 9.48331C-0.950689 9.44997 -0.615509 8.1619 0.181202 5.31023C0.816464 3.03943 1.41312 0.916042 1.50788 0.591391L1.67986 0L4.17177 0.0456266C7.08661 0.0982727 7.53586 0.136879 8.00441 0.375542C8.83622 0.79671 9.06435 1.4425 8.77831 2.56211C8.53438 3.51676 8.06758 4.16431 7.16734 4.80659C6.99711 4.92943 6.84795 5.07684 6.83391 5.1365C6.82338 5.20319 6.92867 5.3506 7.10942 5.5138C7.27087 5.66121 7.44285 5.85775 7.49199 5.95252C7.62185 6.20346 7.59903 6.70886 7.41828 7.58454C7.32639 8.03493 7.26019 8.49018 7.21998 8.94808L7.18313 9.5307H5.97403C5.1194 9.5307 4.74562 9.50788 4.69297 9.45523C4.57539 9.33766 4.60172 9.03758 4.80528 8.17593C5.03342 7.21778 5.04745 6.84223 4.86319 6.60884C4.62102 6.29998 4.39991 6.2333 3.52774 6.20522C2.82403 6.18065 2.70646 6.19118 2.59941 6.28769C2.4327 6.43686 2.29933 6.82469 1.90448 8.28649L1.57106 9.53245L0.368973 9.5307C-0.292613 9.5307 -0.862945 9.50788 -0.901553 9.48331ZM5.44055 4.13798C6.01439 3.96776 6.2548 3.59397 6.25656 2.87448C6.25656 2.65863 6.22146 2.50595 6.146 2.41821C5.97227 2.20763 5.44932 2.13743 4.46659 2.19008L3.61197 2.2357L3.48913 2.65336C3.29609 3.30091 3.16097 3.92564 3.18203 4.07481C3.19607 4.16957 3.26275 4.21871 3.42069 4.25029C3.77166 4.31873 5.07553 4.24503 5.44055 4.13798ZM9.48201 9.66757C9.1012 9.53069 8.80112 9.27624 8.67477 8.98318C8.43435 8.42162 8.65547 7.17566 9.52939 4.14851C9.73997 3.42375 9.9102 2.82358 9.9102 2.81481C9.93843 2.77207 9.97205 2.73314 10.0102 2.69899C10.0909 2.61827 10.2735 2.60072 11.014 2.60072C11.5106 2.60072 11.9897 2.62704 12.0757 2.66038L12.2319 2.72005L12.0739 3.27459C11.6931 4.63461 11.2948 6.28419 11.2263 6.80187C11.1632 7.26867 11.1667 7.39327 11.2404 7.54945C11.4106 7.90218 12.0248 7.97588 12.546 7.70738C13.1602 7.39151 13.2743 7.12301 14.2605 3.68347C14.4062 3.17982 14.515 2.91835 14.6378 2.78673L14.8133 2.60072H15.796C16.5594 2.60072 16.7893 2.61826 16.8139 2.68495C16.8384 2.74812 15.5872 7.4073 15.059 9.21657L14.9765 9.49911L13.9236 9.5307C13.3445 9.54824 12.8707 9.54474 12.8707 9.52368C12.8707 9.50086 12.9145 9.36223 12.9672 9.21307C13.1795 8.60939 12.9145 8.57254 12.1389 9.09549C11.3738 9.61142 11.0509 9.73426 10.3893 9.76234C9.94003 9.78164 9.74348 9.76234 9.48201 9.66757ZM16.4822 9.4798C16.426 9.44471 16.7489 8.19524 17.7106 4.74166L19.0145 0.0491361L21.2203 0.0666852C23.9702 0.0912534 24.5335 0.138634 25.0635 0.40011C25.5022 0.615959 25.7093 0.808996 25.9058 1.17752C26.2322 1.79699 26.227 2.51648 25.8883 3.50447C25.3653 5.02068 24.3931 6.01745 23.1103 6.34912C22.9015 6.40352 22.2504 6.47722 21.6608 6.51232C19.7129 6.62814 19.8322 6.60533 19.7269 6.87382C19.6778 7.00017 19.483 7.65123 19.2952 8.31808L18.953 9.5307H17.7562C17.0964 9.5307 16.5225 9.50788 16.4822 9.4798ZM22.1557 4.43105C22.7962 4.34857 23.1331 4.15027 23.3472 3.73085C23.5771 3.27985 23.6385 2.79024 23.4911 2.56562C23.2911 2.26027 23.0173 2.19359 21.9872 2.19885C21.4748 2.20236 21.029 2.23044 20.9992 2.26027C20.929 2.33047 20.4956 4.04497 20.4956 4.25205C20.4956 4.33804 20.5131 4.42578 20.5377 4.44859C20.5973 4.50826 21.6433 4.49773 22.1557 4.43105ZM25.7549 9.6939C25.0144 9.38328 24.8213 8.86911 25.0635 7.84427C25.4022 6.41054 26.1462 5.93146 28.7013 5.50152C30.2456 5.24179 30.6317 5.05227 30.7405 4.49598C30.823 4.08534 30.472 3.86247 29.7455 3.86071C29.291 3.86071 29.1207 3.9274 28.7277 4.25556L28.4118 4.5223L27.5923 4.54336C26.6446 4.56792 26.3551 4.52932 26.3551 4.38366C26.3551 4.21169 26.7254 3.69049 27.0746 3.37286C27.4466 3.03241 27.9397 2.77094 28.4732 2.6323C29.5963 2.33924 31.5267 2.37434 32.1935 2.69723C32.548 2.87272 32.8639 3.15876 33.0131 3.44656C33.1569 3.71857 33.1061 4.0011 32.4339 6.66148C32.1058 7.96711 31.8355 9.14638 31.8355 9.28326V9.5307H31.0564C30.6282 9.5307 30.1473 9.54824 29.9859 9.57106L29.6963 9.61142L29.5682 9.31309C29.4173 8.96212 29.3998 8.96212 28.6083 9.31836C27.7484 9.70443 27.4326 9.79217 26.764 9.82201C26.1954 9.84833 26.0971 9.83604 25.7549 9.6939ZM29.1418 8.21981C29.577 8.02853 30.0666 7.24235 30.0701 6.73343V6.48775L29.6718 6.52636C29.2278 6.56672 28.2924 6.86856 27.9485 7.0809C27.8108 7.16015 27.6961 7.27377 27.6155 7.41065C27.5349 7.54753 27.4912 7.70299 27.4887 7.86181C27.4905 8.16014 27.5343 8.24262 27.7414 8.33037C27.9801 8.43215 28.8136 8.36371 29.1418 8.21981ZM32.6129 12.5157C32.3602 12.4578 32.3497 12.3648 32.5252 11.6734C32.7603 10.7468 32.7446 10.7661 33.3254 10.6749C33.9519 10.5784 34.2309 10.4397 34.3713 10.1607C34.5257 9.85184 34.5152 8.63396 34.3274 5.37341C34.2222 3.55712 34.1976 2.73409 34.2432 2.67969C34.2906 2.62178 34.61 2.60072 35.4313 2.60072H36.5544L36.5719 4.70656C36.586 6.14555 36.614 6.83697 36.6614 6.88611C36.7772 7.00017 37.1984 6.2877 38.9252 3.05698L39.1709 2.60072H40.1606C40.7064 2.60072 41.1662 2.62177 41.182 2.6481C41.2136 2.70074 39.7114 5.37692 38.2057 7.95658C36.0648 11.6207 35.6611 12.1261 34.6556 12.4069C34.3274 12.4982 32.8779 12.5754 32.6129 12.5157Z" fill="#4E4E4E"/>
<path fill-rule="evenodd" clip-rule="evenodd" d="M41.8955 11.6747L44.8419 0.885742L47.6462 6.46096L41.8955 11.6747Z" fill="#1AAF5D"/>
<path fill-rule="evenodd" clip-rule="evenodd" d="M40.0751 11.7137L43.0197 0.924805L45.824 6.50002L40.0751 11.7137Z" fill="#F59D00"/>
</svg>
