<svg width="28" height="28" viewBox="0 0 28 28" fill="none" xmlns="http://www.w3.org/2000/svg">
<path d="M12.8319 2.68287C18.4346 2.68287 22.9823 7.23056 22.9823 12.8333C22.9823 15.2288 22.151 17.4305 20.7616 19.1672L20.5653 19.4124L20.787 19.634L24.9589 23.8049C25.2778 24.1239 25.2778 24.6413 24.9589 24.9602C24.6399 25.2791 24.1225 25.2791 23.8036 24.9602L19.6327 20.7883L19.411 20.5667L19.1659 20.7629C17.4291 22.1524 15.2274 22.9837 12.8319 22.9837C7.22921 22.9836 2.68152 18.436 2.68152 12.8333C2.68152 7.23056 7.22921 2.68287 12.8319 2.68287ZM12.8319 4.31666C8.12653 4.31666 4.31531 8.12788 4.31531 12.8333C4.31531 17.5386 8.12653 21.3499 12.8319 21.3499C15.1379 21.3499 17.2296 20.4339 18.7626 18.9465L18.9452 18.7639C20.4326 17.231 21.3485 15.1393 21.3485 12.8333C21.3485 8.12788 17.5373 4.31666 12.8319 4.31666Z" fill="white" stroke="white" stroke-width="0.7"/>
</svg>
