<svg width="31" height="25" viewBox="0 0 31 25" fill="none" xmlns="http://www.w3.org/2000/svg">
<path d="M29.3861 11.0978L1.88593 0.0982772C1.6271 -0.00522195 1.34293 -0.0275972 1.0711 0.0341191C0.799264 0.0958354 0.552613 0.238727 0.363855 0.443844C0.175097 0.648961 0.0531506 0.906612 0.0141884 1.18263C-0.0247737 1.45864 0.0210891 1.73998 0.145695 1.98933L5.33804 12.3747L0.145695 22.76C0.0207101 23.0093 -0.0254417 23.2908 0.0133721 23.567C0.0521859 23.8432 0.174127 24.101 0.362993 24.3063C0.551858 24.5115 0.798705 24.6544 1.07073 24.716C1.34276 24.7776 1.62708 24.7549 1.88593 24.6511L29.3861 13.6515C29.6412 13.5493 29.8599 13.3731 30.0139 13.1455C30.1679 12.9179 30.2502 12.6494 30.2502 12.3747C30.2502 12.0999 30.1679 11.8314 30.0139 11.6038C29.8599 11.3762 29.6412 11.2 29.3861 11.0978ZM4.22235 20.7536L7.72474 13.7482H13.7505C14.1151 13.7482 14.4648 13.6033 14.7226 13.3455C14.9804 13.0877 15.1252 12.738 15.1252 12.3734C15.1252 12.0088 14.9804 11.6591 14.7226 11.4013C14.4648 11.1434 14.1151 10.9986 13.7505 10.9986H7.72474L4.22235 3.99576L25.1696 12.3747L4.22235 20.7536Z" fill="white"/>
</svg>
