<svg width="14" height="12" viewBox="0 0 14 12" fill="none" xmlns="http://www.w3.org/2000/svg">
<path d="M13.5896 1.30781C13.0807 1.53294 12.5409 1.68081 11.9883 1.74651C12.5705 1.39799 13.0062 0.849708 13.2141 0.203809C12.6671 0.528848 12.0683 0.757622 11.4438 0.880182C10.9167 0.317815 10.1799 -0.000871543 9.40912 1.79026e-06C7.86965 1.79026e-06 6.62105 1.24818 6.62105 2.78833C6.62105 3.00683 6.64612 3.21872 6.69299 3.42317C4.3749 3.30647 2.3213 2.19714 0.945773 0.510049C0.698113 0.935555 0.567953 1.41923 0.568613 1.91155C0.568613 2.87883 1.06099 3.7326 1.80891 4.23244C1.36617 4.21844 0.933173 4.09887 0.54604 3.88359C0.545613 3.89531 0.545613 3.90702 0.545613 3.91809C0.545613 5.26937 1.50671 6.39658 2.78258 6.65251C2.54312 6.71731 2.29613 6.75004 2.04807 6.74984C1.8679 6.74984 1.69306 6.73324 1.52311 6.70064C1.87813 7.80811 2.90716 8.61437 4.12765 8.63651C3.14001 9.41164 1.92038 9.83217 0.664873 9.83037C0.442667 9.83057 0.220647 9.81744 0 9.79117C1.27461 10.6106 2.75827 11.0454 4.27353 11.0438C9.40232 11.0438 12.2066 6.79544 12.2066 3.11118C12.2066 2.99064 12.2037 2.86968 12.1983 2.75042C12.7441 2.35608 13.2153 1.86756 13.5896 1.30781Z" fill="white"/>
</svg>
