<svg width="32" height="26" viewBox="0 0 32 26" fill="none" xmlns="http://www.w3.org/2000/svg">
<path d="M31.709 3.05155C30.5215 3.57686 29.2621 3.92189 27.9727 4.0752C29.3312 3.26197 30.3478 1.98265 30.8329 0.475553C29.5565 1.23398 28.1593 1.76778 26.7022 2.05376C25.4722 0.741568 23.7531 -0.0020336 21.9546 4.17727e-06C18.3625 4.17727e-06 15.4491 2.91242 15.4491 6.5061C15.4491 7.01593 15.5076 7.51035 15.617 7.98739C10.2081 7.71509 5.41637 5.12666 2.2068 1.19011C1.62893 2.18296 1.32522 3.31153 1.32676 4.46029C1.32676 6.71728 2.47564 8.7094 4.2208 9.8757C3.18772 9.84303 2.1774 9.56402 1.27409 9.06172C1.2731 9.08905 1.2731 9.11638 1.2731 9.14222C1.2731 12.2952 3.51566 14.9253 6.49269 15.5225C5.93395 15.6737 5.35764 15.7501 4.77882 15.7496C4.35843 15.7496 3.95047 15.7109 3.55393 15.6348C4.3823 18.2189 6.78337 20.1002 9.63119 20.1519C7.32668 21.9605 4.48089 22.9417 1.55137 22.9375C1.03289 22.938 0.514842 22.9074 0 22.8461C2.9741 24.758 6.43595 25.7727 9.97158 25.769C21.9387 25.769 28.482 15.856 28.482 7.25942C28.482 6.97816 28.4752 6.69592 28.4627 6.41765C29.7363 5.49751 30.8356 4.35763 31.709 3.05155Z" fill="#D50032"/>
</svg>
