<svg width="28" height="10" viewBox="0 0 28 10" fill="none" xmlns="http://www.w3.org/2000/svg">
<path fill-rule="evenodd" clip-rule="evenodd" d="M25.4869 9.12754H23.703L26.1819 0H27.9658L25.4869 9.12754ZM10.6624 8.55574C10.5649 8.91621 10.2397 9.1689 9.87403 9.1689H0.677863C0.425875 9.1689 0.239024 9.08181 0.117032 8.90791C-0.00482191 8.73372 -0.0332499 8.51831 0.03989 8.26154L2.28308 0.0249036H4.06714L2.06366 7.38316H9.19962L11.203 0.0249036H12.987L10.6626 8.55574H10.6624ZM24.5604 0.285899C24.4385 0.111855 24.2474 0.0249036 23.9874 0.0249036H14.1857L13.7021 1.81473H22.618L22.0979 3.72485H14.9661V3.72063H13.1822L11.7029 9.16904H13.4869L14.4784 5.51468H22.4962C22.7482 5.51468 22.9839 5.42759 23.2033 5.25368C23.4227 5.07964 23.5691 4.86423 23.6381 4.60732L24.6297 0.953092C24.7068 0.679715 24.6825 0.460084 24.5605 0.28604L24.5604 0.285899Z" fill="#716D6A"/>
</svg>
