<svg width="19" height="25" viewBox="0 0 19 25" fill="none" xmlns="http://www.w3.org/2000/svg">
<path d="M18.6667 23.3333C18.6667 23.9777 18.1443 24.5 17.5 24.5C16.8557 24.5 16.3333 23.9777 16.3333 23.3333V22.1667C16.3333 20.2336 14.7664 18.6667 12.8333 18.6667H5.83333C3.90034 18.6667 2.33333 20.2336 2.33333 22.1667V23.3333C2.33333 23.9777 1.811 24.5 1.16667 24.5C0.522335 24.5 0 23.9777 0 23.3333V22.1667C0 18.945 2.61168 16.3333 5.83333 16.3333H12.8333C16.055 16.3333 18.6667 18.945 18.6667 22.1667V23.3333ZM9.33333 14C5.46734 14 2.33333 10.866 2.33333 7C2.33333 3.134 5.46734 0 9.33333 0C13.1993 0 16.3333 3.134 16.3333 7C16.3333 10.866 13.1993 14 9.33333 14ZM9.33333 11.6667C11.9106 11.6667 14 9.57733 14 7C14 4.42267 11.9106 2.33333 9.33333 2.33333C6.756 2.33333 4.66667 4.42267 4.66667 7C4.66667 9.57733 6.756 11.6667 9.33333 11.6667Z" fill="white"/>
</svg>
