<svg width="55" height="19" viewBox="0 0 55 19" fill="none" xmlns="http://www.w3.org/2000/svg">
<path d="M16.1114 18.3781L19.148 0.368184H24.0049L20.9661 18.3781H16.1114ZM38.5138 0.756424C37.5517 0.391552 36.0438 0 34.1608 0C29.3614 0 25.981 2.44269 25.952 5.94357C25.925 8.53144 28.3656 9.97519 30.2079 10.8366C32.0986 11.7196 32.734 12.2825 32.7249 13.0706C32.7128 14.2779 31.2152 14.8292 29.819 14.8292C27.8751 14.8292 26.8424 14.5562 25.2472 13.8841L24.6212 13.5979L23.9397 17.6295C25.0741 18.1325 27.1718 18.5678 29.35 18.5904C34.4557 18.5904 37.7701 16.1756 37.8078 12.437C37.8259 10.3882 36.532 8.82924 33.7297 7.54372C32.0321 6.71057 30.9924 6.15462 31.0034 5.31098C31.0034 4.56237 31.8835 3.76188 33.7852 3.76188C35.3732 3.73695 36.5239 4.08701 37.4204 4.45188L37.8556 4.65971L38.5138 0.756424ZM51.0125 0.367907H47.2595C46.0969 0.367907 45.2267 0.68862 44.7163 1.86144L37.5029 18.3662H42.6032C42.6032 18.3662 43.4369 16.1471 43.6255 15.6598C44.1828 15.6598 49.1376 15.6675 49.8458 15.6675C49.9911 16.2981 50.4368 18.3662 50.4368 18.3662H54.9436L51.0125 0.367356V0.367907ZM45.0579 11.9976C45.4597 10.96 46.9931 6.96302 46.9931 6.96302C46.9645 7.01095 47.3919 5.92029 47.637 5.24409L47.9652 6.79687C47.9652 6.79687 48.8952 11.0959 49.0897 11.9974H45.0579V11.9976ZM11.9883 0.367907L7.23317 12.6499L6.72661 10.154C5.8413 7.27683 3.08331 4.1596 0 2.599L4.34802 18.3494L9.48687 18.3436L17.1334 0.367723L11.9883 0.367632" fill="#4E4E4E"/>
</svg>
