<svg width="14" height="11" viewBox="0 0 14 11" fill="none" xmlns="http://www.w3.org/2000/svg">
<path d="M6.82927 0C7.18533 0.00196 8.0762 0.0105734 9.02273 0.0484867L9.35833 0.0631199C10.3113 0.10824 11.2635 0.18532 11.7358 0.317C12.3657 0.493967 12.8609 1.01033 13.0282 1.66488C13.2947 2.70427 13.328 4.73293 13.3321 5.22387L13.3327 5.3256V5.33273C13.3327 5.33273 13.3327 5.3352 13.3327 5.33993L13.3321 5.44167C13.328 5.9326 13.2947 7.96127 13.0282 9.00066C12.8585 9.6576 12.3634 10.174 11.7358 10.3485C11.2635 10.4802 10.3113 10.5573 9.35833 10.6024L9.02273 10.617C8.0762 10.6549 7.18533 10.6635 6.82927 10.6655L6.673 10.6661H6.66607C6.66607 10.6661 6.66373 10.6661 6.65913 10.6661L6.503 10.6655C5.7494 10.6614 2.59848 10.6273 1.59634 10.3485C0.9664 10.1715 0.47128 9.6552 0.303913 9.00066C0.0374666 7.96127 0.00416 5.9326 0 5.44167V5.22387C0.00416 4.73293 0.0374666 2.70427 0.303913 1.66488C0.4736 1.00791 0.96872 0.491547 1.59634 0.317C2.59848 0.0381534 5.7494 0.00414667 6.503 0H6.82927ZM5.33274 2.99943V7.66607L9.33273 5.33273L5.33274 2.99943Z" fill="white"/>
</svg>
