<svg width="32" height="25" viewBox="0 0 32 25" fill="none" xmlns="http://www.w3.org/2000/svg">
<path d="M15.935 0C16.7658 0.00457333 18.8445 0.0246712 21.053 0.113136L21.8361 0.14728C24.0598 0.25256 26.2816 0.432413 27.3835 0.739667C28.8534 1.15259 30.0087 2.35744 30.3991 3.88472C31.0209 6.30997 31.0987 11.0435 31.1083 12.189L31.1097 12.4264V12.443C31.1097 12.443 31.1097 12.4488 31.1097 12.4598L31.1083 12.6972C31.0987 13.8427 31.0209 18.5763 30.3991 21.0016C30.0032 22.5344 28.8479 23.7393 27.3835 24.1466C26.2816 24.4538 24.0598 24.6336 21.8361 24.7389L21.053 24.773C18.8445 24.8615 16.7658 24.8816 15.935 24.8862L15.5703 24.8875H15.5542C15.5542 24.8875 15.5487 24.8875 15.538 24.8875L15.1737 24.8862C13.4153 24.8766 6.06312 24.7971 3.72479 24.1466C2.25493 23.7336 1.09965 22.5288 0.709131 21.0016C0.0874221 18.5763 0.00970667 13.8427 0 12.6972V12.189C0.00970667 11.0435 0.0874221 6.30997 0.709131 3.88472C1.10507 2.35178 2.26035 1.14694 3.72479 0.739667C6.06312 0.0890246 13.4153 0.00967555 15.1737 0H15.935ZM12.4431 6.99866V17.8875L21.7764 12.443L12.4431 6.99866Z" fill="#D50032"/>
</svg>
